<?xml version="1.0" encoding="utf-8"?>
<!-- Generator: Adobe Illustrator 16.0.0, SVG Export Plug-In . SVG Version: 6.00 Build 0)  -->
<!DOCTYPE svg PUBLIC "-//W3C//DTD SVG 1.1//EN" "http://www.w3.org/Graphics/SVG/1.1/DTD/svg11.dtd">
<svg version="1.1" id="Layer_1" xmlns="http://www.w3.org/2000/svg" xmlns:xlink="http://www.w3.org/1999/xlink" x="0px" y="0px"
	 width="6px" height="10px" viewBox="0 0 6 10" enable-background="new 0 0 6 10" xml:space="preserve">
<g>
	<path fill="#231F20" d="M-88.016-224.876c11.136,0,22.214,4.351,30.45,13.035L143.582-0.98L-57.043,217.205
		c-15.66,17.139-42.282,18.239-59.45,2.521c-17.111-15.718-18.154-42.341-2.437-59.45L28.393,0.064l-146.858-153.847
		c-16.008-16.791-15.37-43.442,1.45-59.45C-108.896-221.02-98.398-224.876-88.016-224.876z"/>
</g>
<g>
	<path fill="#FFFFFF" d="M0.922,0C1.167,0,1.41,0.096,1.591,0.286l4.414,4.627L1.603,9.701c-0.344,0.376-0.928,0.4-1.305,0.056
		c-0.375-0.345-0.398-0.93-0.053-1.305l3.233-3.516L0.254,1.56c-0.351-0.369-0.337-0.953,0.032-1.305C0.464,0.084,0.695,0,0.922,0z"
		/>
</g>
</svg>
