<?xml version="1.0" encoding="utf-8"?>
<!-- Generator: Adobe Illustrator 16.0.0, SVG Export Plug-In . SVG Version: 6.00 Build 0)  -->
<!DOCTYPE svg PUBLIC "-//W3C//DTD SVG 1.1//EN" "http://www.w3.org/Graphics/SVG/1.1/DTD/svg11.dtd">
<svg version="1.1" id="Layer_1" xmlns="http://www.w3.org/2000/svg" xmlns:xlink="http://www.w3.org/1999/xlink" x="0px" y="0px"
	 width="16px" height="16px" viewBox="0 0 16 16" enable-background="new 0 0 16 16" xml:space="preserve">
<path fill="#47438E" d="M16,8c0-4.419-3.582-8-8-8C3.581,0,0,3.581,0,8c0,4.418,3.581,8,8,8C12.418,16,16,12.418,16,8z
	 M6.188,12.639c-0.366-0.337-0.389-0.906-0.052-1.271l3.153-3.429L6.146,4.646C5.803,4.286,5.817,3.715,6.177,3.373
	c0.173-0.167,0.398-0.249,0.62-0.249c0.238,0,0.476,0.093,0.65,0.278l4.306,4.513l-4.294,4.67
	C7.125,12.951,6.556,12.976,6.188,12.639z"/>
</svg>
