<?xml version="1.0" encoding="utf-8"?>
<!-- Generator: Adobe Illustrator 16.0.0, SVG Export Plug-In . SVG Version: 6.00 Build 0)  -->
<!DOCTYPE svg PUBLIC "-//W3C//DTD SVG 1.1//EN" "http://www.w3.org/Graphics/SVG/1.1/DTD/svg11.dtd">
<svg version="1.1" id="Layer_1" xmlns="http://www.w3.org/2000/svg" xmlns:xlink="http://www.w3.org/1999/xlink" x="0px" y="0px"
	 width="16px" height="16px" viewBox="0 0 16 16" enable-background="new 0 0 16 16" xml:space="preserve">
<path fill="#79BE10" d="M8,0C3.589,0,0,3.589,0,8.001c0,4.412,3.589,8,8,8c4.412,0,8-3.588,8-8C16,3.589,12.412,0,8,0z M8,14.821
	c-3.761,0-6.823-3.059-6.823-6.82C1.177,4.24,4.239,1.178,8,1.178c3.762,0,6.82,3.061,6.82,6.823
	C14.82,11.763,11.762,14.821,8,14.821z"/>
<path fill="#79BE10" d="M11.031,5.063L7.174,9.664L4.953,7.231C4.735,6.99,4.36,6.973,4.12,7.193
	c-0.24,0.218-0.257,0.592-0.038,0.831l2.675,2.931c0.112,0.122,0.271,0.193,0.435,0.193c0.004,0,0.01,0,0.014,0
	c0.169-0.005,0.329-0.081,0.438-0.212l4.291-5.117c0.21-0.25,0.178-0.622-0.072-0.831C11.611,4.78,11.24,4.815,11.031,5.063z"/>
</svg>
